<svg width="321" height="104" viewBox="0 0 321 104" fill="none" xmlns="http://www.w3.org/2000/svg">
<path fill-rule="evenodd" clip-rule="evenodd" d="M169.178 26.1307C169.178 29.8788 166.27 32.8974 162.66 32.8974C159.049 32.8974 156.142 29.8788 156.142 26.1307C156.142 22.3827 158.949 19.3641 162.66 19.3641C166.37 19.4678 169.178 22.4873 169.178 26.1307ZM142.303 39.7686V41.4339C142.303 41.4339 139.195 37.2703 132.576 37.2703C121.646 37.2703 113.121 45.9105 113.121 57.8822C113.121 69.7502 121.545 78.4941 132.576 78.4941C139.294 78.4941 142.303 74.2258 142.303 74.2258V75.9957C142.303 76.8288 142.905 77.4527 143.706 77.4527H151.829V38.3098H143.706C142.904 38.3098 142.303 39.0383 142.303 39.7668V39.7686ZM142.303 64.8571C140.799 67.1472 137.79 69.1254 134.181 69.1254C127.763 69.1254 122.849 64.9617 122.849 57.8822C122.849 50.8036 127.763 46.639 134.181 46.639C137.69 46.639 140.899 48.7208 142.303 50.9072V64.8571ZM157.846 38.3107H167.473V77.4536H157.846V38.3107ZM301.646 37.2693C295.028 37.2693 291.919 41.433 291.919 41.433V19.4678H282.293V77.4527H290.415C291.217 77.4527 291.818 76.7242 291.818 75.9957V74.2258C291.818 74.2258 294.927 78.4941 301.546 78.4941C312.476 78.4941 321 69.7493 321 57.8822C321 46.0142 312.477 37.2703 301.646 37.2703V37.2693ZM300.042 69.0208C296.332 69.0208 293.424 67.0426 291.92 64.7525V50.8026C293.424 48.7208 296.633 46.5344 300.042 46.5344C306.46 46.5344 311.374 50.698 311.374 57.7776C311.374 64.8562 306.46 69.0208 300.042 69.0208V69.0208ZM277.279 54.2378V77.5564H267.652V55.3829C267.652 48.9282 265.647 46.3261 260.232 46.3261C257.324 46.3261 254.316 47.8877 252.41 50.1778V77.4527H242.784V38.3098H250.405C251.207 38.3098 251.808 39.0383 251.808 39.7668V41.4321C254.616 38.4135 258.327 37.2684 262.037 37.2684C266.248 37.2684 269.759 38.5181 272.566 41.0165C275.976 43.9314 277.28 47.6794 277.28 54.2378H277.279ZM219.418 37.2693C212.8 37.2693 209.691 41.433 209.691 41.433V19.4678H200.064V77.4527H208.186C208.989 77.4527 209.59 76.7242 209.59 75.9957V74.2258C209.59 74.2258 212.698 78.4941 219.317 78.4941C230.247 78.4941 238.771 69.7493 238.771 57.8822C238.871 46.0142 230.348 37.2703 219.418 37.2703V37.2693ZM217.814 69.0208C214.103 69.0208 211.196 67.0426 209.692 64.7525V50.8026C211.196 48.7208 214.405 46.5344 217.814 46.5344C224.232 46.5344 229.145 50.698 229.145 57.7776C229.145 64.8562 224.231 69.0208 217.814 69.0208V69.0208ZM191.741 37.2693C194.649 37.2693 196.153 37.7896 196.153 37.7896V47.0546C196.153 47.0546 188.131 44.2443 183.117 50.1778V77.5573H173.491V38.3107H181.613C182.415 38.3107 183.016 39.0392 183.016 39.7677V41.433C184.821 39.2466 188.732 37.2693 191.74 37.2693H191.741ZM91.7633 73.9139C91.2621 72.6642 90.7601 71.3109 90.259 70.1658C89.4565 68.2923 88.6549 66.5224 87.9523 64.8562L87.8524 64.7525C80.9331 49.1374 73.5126 33.313 65.6909 17.6979L65.3904 17.0731C64.5879 15.5115 63.7863 13.8462 62.9838 12.18C61.9807 10.3064 60.9785 8.32825 59.3735 6.45469C56.1644 2.29103 51.5518 0 46.6378 0C41.624 0 37.1112 2.29011 33.8022 6.24643C32.298 8.11998 31.195 10.0981 30.1919 11.9717C29.3894 13.637 28.5878 15.3032 27.7853 16.8648L27.4848 17.4896C19.763 33.1048 12.2426 48.9291 5.32332 64.5442L5.22345 64.7525C4.52171 66.4178 3.71921 68.1877 2.91671 70.0621C2.41559 71.2072 1.91358 72.4569 1.41246 73.8102C0.108848 77.6619 -0.2924 81.3053 0.208716 85.0534C1.31171 92.8614 6.32554 99.4198 13.2449 102.335C15.8521 103.48 18.5592 104 21.3671 104C22.1696 104 23.1718 103.896 23.9743 103.792C27.2833 103.375 30.693 102.23 34.002 100.252C38.1135 97.8573 42.0243 94.4221 46.4363 89.4253C50.8482 94.4221 54.8598 97.8573 58.8706 100.252C62.1795 102.23 65.5893 103.375 68.8982 103.792C69.7007 103.895 70.703 104 71.5055 104C74.3133 104 77.1212 103.48 79.6277 102.335C86.6469 99.4198 91.5608 92.7568 92.6638 85.0534C93.4663 81.4099 93.0651 77.7665 91.7615 73.9148L91.7633 73.9139ZM46.5379 79.3272C41.1228 72.2486 37.6132 65.5856 36.4095 59.964C35.9084 57.5693 35.8076 55.4875 36.109 53.6139C36.3096 51.9486 36.9115 50.4907 37.7131 49.242C39.6186 46.4316 42.8277 44.6618 46.5379 44.6618C50.2481 44.6618 53.5571 46.327 55.3628 49.242C56.1653 50.4916 56.7662 51.9486 56.9669 53.6139C57.2673 55.4875 57.1675 57.6739 56.6664 59.964C55.4626 65.481 51.953 72.144 46.5379 79.3272ZM86.5488 84.2203C85.847 89.6336 82.3374 94.3184 77.4235 96.4003C75.0169 97.4416 72.4096 97.7536 69.8024 97.4416C67.295 97.1297 64.7886 96.2966 62.1813 94.735C58.571 92.6531 54.9615 89.4253 50.7493 84.6368C57.3672 76.2049 61.3788 68.5005 62.8831 61.6302C63.5848 58.4033 63.6856 55.4884 63.3842 52.7817C62.9829 50.1787 62.0806 47.785 60.6771 45.7031C57.5687 41.0183 52.3543 38.3117 46.5379 38.3117C40.7216 38.3117 35.5071 41.122 32.3988 45.7031C30.9953 47.785 30.092 50.1797 29.6917 52.7817C29.2904 55.4884 29.3912 58.507 30.1928 61.6302C31.697 68.5005 35.8085 76.3086 42.3266 84.7414C38.2151 89.5299 34.5049 92.7577 30.8945 94.8396C28.2873 96.4012 25.7799 97.2343 23.2735 97.5462C20.5664 97.8582 17.9591 97.4426 15.6524 96.5049C10.7384 94.423 7.22881 89.7382 6.52706 84.3249C6.22657 81.7219 6.4272 79.1198 7.42943 76.2049C7.72992 75.1635 8.23193 74.1231 8.73305 72.8734C9.43479 71.2081 10.2373 69.4382 11.0398 67.6684L11.1397 67.4601C18.059 51.9486 25.4794 36.1252 33.2013 20.7183L33.5018 20.0935L35.9084 15.305C36.7109 13.6398 37.6132 12.0781 38.7162 10.7248C40.8223 8.22643 43.6302 6.87309 46.7386 6.87309C49.8469 6.87309 52.6548 8.22643 54.7609 10.7248C55.8639 12.0781 56.7662 13.6398 57.5687 15.305L59.9753 20.0935L60.2758 20.7183C67.8969 36.2298 75.3174 52.0532 82.2367 67.5647V67.6684L84.5434 72.8734C85.0445 74.1231 85.5465 75.1635 85.847 76.2049C86.6495 78.9116 86.95 81.5145 86.5488 84.2212V84.2203Z" fill="#FF5A5F"/>
</svg>
