<?xml version="1.0" standalone="no"?>
<!DOCTYPE svg PUBLIC "-//W3C//DTD SVG 20010904//EN"
 "http://www.w3.org/TR/2001/REC-SVG-20010904/DTD/svg10.dtd">
<svg version="1.0" xmlns="http://www.w3.org/2000/svg"
 width="1200.000000pt" height="252.000000pt" viewBox="0 0 1200.000000 252.000000"
 preserveAspectRatio="xMidYMid meet">

<g transform="translate(0.000000,252.000000) scale(0.100000,-0.100000)"
fill="#000000" stroke="none">
<path fill="#FF5A5F" d="M2195 2507 c-121 -40 -182 -112 -192 -227 -14 -156 102 -280 262
-280 160 0 276 124 262 280 -9 99 -59 170 -150 210 -60 27 -131 33 -182 17z"/>
<path  d="M4531 1820 c-197 -28 -369 -117 -512 -267 -171 -179 -251 -388 -250
-653 0 -264 83 -475 253 -648 110 -111 232 -181 391 -224 115 -32 344 -31 462
1 217 58 407 198 495 362 28 53 74 170 68 174 -2 1 -100 20 -218 43 -195 38
-216 40 -225 26 -47 -77 -77 -114 -120 -146 -71 -54 -133 -73 -235 -73 -112 1
-186 33 -263 114 -103 108 -142 224 -134 406 5 133 30 217 90 307 77 115 182
173 312 171 143 -2 240 -66 330 -218 11 -18 33 -15 393 56 28 6 52 15 52 21 0
5 -12 40 -27 76 -111 279 -380 462 -702 476 -53 3 -125 1 -160 -4z"/>
<path  d="M6302 1820 c-399 -56 -700 -334 -777 -719 -24 -115 -16 -332 14 -446
84 -308 332 -549 646 -627 116 -29 351 -31 459 -5 388 96 658 406 695 798 16
165 -11 343 -73 483 -111 251 -351 443 -628 501 -90 19 -254 27 -336 15z m253
-425 c141 -40 260 -178 301 -352 21 -88 14 -234 -15 -317 -58 -165 -189 -280
-350 -308 -323 -55 -582 281 -491 636 26 102 63 168 130 237 113 114 260 150
425 104z"/>
<path  d="M9751 1820 c-456 -64 -775 -473 -748 -959 10 -187 75 -379 172 -511
20 -27 72 -83 116 -124 93 -88 229 -162 364 -198 118 -31 354 -32 479 0 168
42 333 136 434 247 59 64 129 182 116 195 -5 4 -96 35 -203 69 l-195 60 -53
-58 c-104 -116 -203 -156 -362 -149 -83 4 -104 8 -156 35 -123 63 -210 187
-238 341 l-6 32 631 0 631 0 -6 148 c-11 281 -91 484 -254 644 -75 74 -113
102 -197 145 -138 70 -364 105 -525 83z m249 -367 c69 -24 125 -68 170 -130
36 -50 80 -160 80 -199 0 -12 -62 -14 -385 -14 -212 0 -385 4 -385 8 0 20 42
129 64 167 33 56 117 132 173 157 87 38 194 42 283 11z"/>
<path fill="#FF5A5F"  d="M640 1799 c-86 -22 -179 -64 -247 -110 -457 -313 -525 -1049 -133
-1449 92 -93 169 -145 280 -186 240 -91 493 -57 688 91 35 26 82 73 105 103
l42 56 7 -55 c3 -30 6 -87 7 -126 l1 -73 210 0 210 0 2 861 c2 473 2 861 1
862 -1 1 -96 1 -212 -1 l-211 -3 -1 -57 c-1 -31 -4 -81 -7 -109 l-7 -53 -36
45 c-81 99 -196 172 -325 205 -104 27 -270 26 -374 -1z m384 -394 c151 -39
277 -174 320 -341 20 -78 21 -222 1 -299 -36 -137 -131 -257 -249 -315 -121
-60 -283 -51 -398 21 -221 141 -291 458 -158 719 29 57 123 151 180 181 94 48
203 60 304 34z"/>
<path d="M11735 1804 c-154 -21 -259 -85 -343 -207 -32 -47 -48 -64 -49 -51
-1 11 -5 67 -8 127 l-7 107 -214 0 -214 0 0 -860 0 -860 229 0 229 0 5 478 c4
518 5 526 63 632 62 115 168 172 319 174 50 1 109 -2 133 -7 l42 -7 0 229 c0
210 -1 230 -17 235 -29 8 -135 14 -168 10z"/>
<path fill="#FF5A5F"  d="M3470 1786 c-111 -30 -233 -123 -279 -214 -12 -23 -26 -42 -31 -42
-6 0 -10 26 -10 58 0 31 -3 87 -7 125 l-6 67 -208 0 -209 0 0 -860 0 -860 230
0 230 0 0 473 c0 393 3 483 15 532 32 123 98 204 204 253 49 23 69 27 166 27
61 0 122 -3 138 -8 l27 -7 0 229 0 229 -31 6 c-51 10 -180 6 -229 -8z"/>
<path fill="#FF5A5F"  d="M2037 1784 c-4 -4 -7 -394 -7 -866 l0 -858 235 0 235 0 -2 863 -3
862 -226 3 c-124 1 -228 -1 -232 -4z"/>
<path d="M7477 1268 c107 -282 254 -670 327 -863 l132 -350 231 -3 c177 -2
233 1 240 10 7 9 591 1540 651 1706 3 9 -49 12 -240 12 l-244 0 -193 -607
c-106 -335 -196 -611 -200 -616 -6 -6 -193 575 -374 1161 l-19 62 -253 0 -252
0 194 -512z"/>
</g>
</svg>
