<svg width="171" height="160" viewBox="0 0 171 160" fill="none" xmlns="http://www.w3.org/2000/svg">
<path d="M106.012 10.2004C99.727 13.586 94.2408 18.4855 89.5657 25.0166L85.5 30.6963L81.4343 25.0166C76.7599 18.4865 71.2747 13.5876 64.9911 10.2021L106.012 10.2004ZM106.012 10.2004C112.32 6.80834 118.899 5.1375 125.812 5.1375C137.193 5.1375 146.52 9.05026 154.13 16.9082C161.756 24.7817 165.604 34.4935 165.604 46.3875C165.604 52.4414 164.584 58.3952 162.526 64.2708L162.525 64.2723C160.5 70.0619 156.83 76.7147 151.335 84.253L151.334 84.2545C145.843 91.7917 138.323 100.514 128.716 110.434C119.093 120.37 106.843 132.254 91.9505 146.094L91.9413 146.102L91.9322 146.111L85.5 152.149L79.0678 146.111L79.0587 146.102L79.0495 146.094C64.1569 132.254 51.9075 120.37 42.2844 110.434C32.6767 100.514 25.157 91.7917 19.6664 84.2545L19.6653 84.253C14.1696 76.7147 10.5004 70.0619 8.47468 64.2723L8.47418 64.2708C6.41644 58.3952 5.39583 52.4414 5.39583 46.3875C5.39583 34.4935 9.24437 24.7817 16.8696 16.9082C24.4798 9.05026 33.8066 5.1375 45.1875 5.1375C52.1022 5.1375 58.6813 6.80874 64.9903 10.2016L106.012 10.2004Z" fill="#060000" fill-opacity="0.37" stroke="white" stroke-width="10"/>
</svg>
