<svg xmlns="http://www.w3.org/2000/svg" height="24" width="24"><path d="m7.1 23.575 3.15-15.95q.175-.825.788-1.262.612-.438 1.312-.438.65 0 1.212.288.563.287.913.862l1 1.6q.375.6.938 1.1.562.5 1.262.8v-1.65h2.15v14.65h-2.15V13.35q-1-.25-1.887-.75-.888-.5-1.588-1.175l-.45 2.225 2.075 1.95v7.975h-2.65V17.4L11.6 15.875l-1.75 7.7Zm.175-9.825-2.45-.45q-.5-.1-.812-.575-.313-.475-.213-1L4.55 7.8q.2-1 1-1.513.8-.512 1.75-.312l1.45.3ZM14 5.2q-.9 0-1.55-.65T11.8 3q0-.9.65-1.55T14 .8q.9 0 1.55.65T16.2 3q0 .9-.65 1.55T14 5.2Z"/></svg>